/* XPM */
static char * coin_xpm[] = {
"20 20 3 1",
" 	c None",
".	c #FFD700",  // Altın sarısı renk
"+	c #808080",  // Gri renk (gölge)
"....................",
"....................",
".......+++++++++....",
".....+++++++++++++..",
"....+++++++++++++++.",
"...+++++++++++++++++",
"...+++++++++++++++++",
"...++++++++.++++++++",
"...++++++++.++++++++",
"...+++++++++++++++++",
"...+++++++++++++++++",
"...+++++++++++++++++",
"...+++++++++++++++++",
"....+++++++++++++++.",
".....+++++++++++++..",
".......+++++++++....",
"....................",
"....................",
"....................",
"...................."
};
