/* XPM */
static char *result[] = {
/* columns rows colors chars-per-pixel */
"64 64 139 2 ",
"   c #010002",
".  c #0C0000",
"X  c #05060A",
"o  c #05080C",
"O  c #0B0A0D",
"+  c #130001",
"@  c #1C0002",
"#  c #13070C",
"$  c #0B0D11",
"%  c #121214",
"&  c #15161B",
"*  c #1B1B1B",
"=  c #230002",
"-  c #2E0003",
";  c #3D0004",
":  c #1D1D22",
">  c #242324",
",  c #2C2226",
"<  c #25252A",
"1  c #2C2C2D",
"2  c #2C2C30",
"3  c #332D31",
"4  c #382C31",
"5  c #323235",
"6  c #3B3337",
"7  c #3B3B3D",
"8  c #410005",
"9  c #4D0006",
"0  c #590006",
"q  c #650007",
"w  c #6B0008",
"e  c #710008",
"r  c #7C0009",
"t  c #461C23",
"y  c #581820",
"u  c #50252C",
"i  c #443439",
"p  c #74343B",
"a  c #3E3E42",
"s  c #603C42",
"d  c #703F46",
"f  c #434344",
"g  c #454548",
"h  c #4C4C4C",
"j  c #5A4146",
"k  c #515155",
"l  c #5A5A5B",
"z  c #6C454B",
"x  c #7B5257",
"c  c #5F5F62",
"v  c #646465",
"b  c #6A6A6B",
"n  c #6D6D70",
"m  c #717173",
"M  c #7B7B7B",
"N  c #84000A",
"B  c #8F000B",
"V  c #93000B",
"C  c #9C000C",
"Z  c #A5000C",
"A  c #AA000D",
"S  c #B2000D",
"D  c #BD000E",
"F  c #A0101C",
"G  c #A81D29",
"H  c #A72632",
"J  c #BC2C38",
"K  c #C6000F",
"L  c #CE000F",
"P  c #D50010",
"I  c #DD0011",
"U  c #EA000F",
"Y  c #E30011",
"T  c #EA0012",
"R  c #EB0A1B",
"E  c #EA0719",
"W  c #EB0F20",
"Q  c #E41121",
"!  c #EC1323",
"~  c #ED1728",
"^  c #EC1B2B",
"/  c #DA2735",
"(  c #DB2D3B",
")  c #E62837",
"_  c #E42B3A",
"`  c #AD3E48",
"'  c #BB3B46",
"]  c #C73A45",
"[  c #DA3B48",
"{  c #EE3543",
"}  c #9A4E56",
"|  c #AF4A53",
" . c #965F65",
".. c #D8434F",
"X. c #C44650",
"o. c #CE4853",
"O. c #C44F59",
"+. c #D94D57",
"@. c #F04955",
"#. c #F15A65",
"$. c #F2616C",
"%. c #F36B75",
"&. c #F3717B",
"*. c #7F7F81",
"=. c #F47A83",
"-. c #838383",
";. c #8B8B8C",
":. c #8F8F91",
">. c #939394",
",. c #9C9C9D",
"<. c #A4A4A5",
"1. c #A7A7A9",
"2. c #ACACAC",
"3. c #AEAEB0",
"4. c #B1B1B2",
"5. c #BCBCBC",
"6. c #F5868F",
"7. c #F58C94",
"8. c #F7A8AE",
"9. c #F8AFB4",
"0. c #F8B0B6",
"q. c #F8B4B9",
"w. c #F9B9BE",
"e. c #F9BFC3",
"r. c #C3C3C4",
"t. c #C7C7C8",
"y. c #CCCCCC",
"u. c #D4D4D5",
"i. c #DCDCDC",
"p. c #FAC8CC",
"a. c #FBCED2",
"s. c #FBD2D5",
"d. c #FCDCDF",
"f. c #E4E4E4",
"g. c #ECECEC",
"h. c #F3F3F3",
"j. c #FEF4F5",
"k. c #FCFCFC",
"l. c None",
/* pixels */
"l.l.l.l.l.l.l.l.l.l.l.l.l.l.l.l.l.l.l.l.l.l.l.l.l.l.l.l.l.l.l.l.l.l.l.l.l.l.l.l.l.l.l.l.l.l.l.l.l.l.l.l.l.l.l.l.l.l.l.l.l.l.l.l.",
"l.l.l.l.l.l.l.l.l.l.l.l.l.l.l.l.l.l.l.l.l.l.l.l.l.l.l.l.l.l.l.l.l.l.l.l.l.l.l.l.l.l.l.l.l.l.l.l.l.l.l.l.l.l.l.l.l.l.l.l.l.l.l.l.",
"l.l.l.l.l.l.l.l.l.l.l.l.l.l.l.l.l.l.l.l.l.l.l.l.l.l.l.l.l.l.l.l.l.l.l.l.l.l.l.l.l.l.l.l.l.l.l.l.l.l.l.l.l.l.l.l.l.l.l.l.l.l.l.l.",
"l.l.l.l.l.l.l.l.l.l.l.l.l.l.l.l.l.l.l.l.l.l.l.l.l.l.l.l.l.l.l.l.l.l.l.l.l.l.l.l.l.l.l.l.l.l.l.l.l.l.l.l.l.l.l.l.l.l.l.l.l.l.l.l.",
"l.l.l.l.l.l.l.l.l.l.l.l.l.l.l.l.l.l.l.l.l.l.l.l.l.l.      . . + + + .       l.l.l.l.l.l.l.l.l.l.l.l.l.l.l.l.l.l.l.l.l.l.l.l.l.l.",
"l.l.l.l.l.l.l.l.l.l.l.l.l.l.l.l.l.l.l.l.l.l.l.  @ ; q N Z S D K D D S Z N q ; @   l.l.l.l.l.l.l.l.l.l.l.l.l.l.l.l.l.l.l.l.l.l.l.",
"l.l.l.l.l.l.l.l.l.l.l.l.l.l.l.l.l.l.l.l.  + 9 B K Y T T T T T T T T T T T T Y K V 9 +   l.l.l.l.l.l.l.l.l.l.l.l.l.l.l.l.l.l.l.l.",
"l.l.l.l.l.l.l.l.l.l.l.l.l.l.l.l.l.l.  = w D T T T T T T T T T T T T T T T T T T T T D w =   l.l.l.l.l.l.l.l.l.l.l.l.l.l.l.l.l.l.",
"l.l.l.l.l.l.l.l.l.l.l.l.l.l.l.l.  + w K T T T T T T T T T T T T T T T T T T T T T T T T K w +   l.l.l.l.l.l.l.l.l.l.l.l.l.l.l.l.",
"l.l.l.l.l.l.l.l.l.l.l.l.l.l.l.  8 S T E T T T T T T T T T T T T T T T T T T T T T T T T T T S 8   l.l.l.l.l.l.l.l.l.l.l.l.l.l.l.",
"l.l.l.l.l.l.l.l.l.l.l.l.l.l.+ e P T T T T T T T T Y T T T T T T T T T T T T T T T T T T T T T P e + l.l.l.l.l.l.l.l.l.l.l.l.l.l.",
"l.l.l.l.l.l.l.l.l.l.l.l.l.+ V T T T T T T T T T T T T T T T T T T T T T T T T T T T T T T T T T T V @ l.l.l.l.l.l.l.l.l.l.l.l.l.",
"l.l.l.l.l.l.l.l.l.l.l.l.@ Z T T T T T T T T T T T T T T T T T T T T T T T T T T T T T T T T T T U U Z @ l.l.l.l.l.l.l.l.l.l.l.l.",
"l.l.l.l.l.l.l.l.l.l.l.@ A T T T T Y T T T T T T T T T T T T T T T T T T T T T T T T T T T Y T ! ~ T T Z @ l.l.l.l.l.l.l.l.l.l.l.",
"l.l.l.l.l.l.l.l.l.l.+ V T T T T T T T T T T T T T T T T T T T T T T T T T T T T T T T T T R =.s.s.7.! U C + l.l.l.l.l.l.l.l.l.l.",
"l.l.l.l.l.l.l.l.l.  r T T T T T T T T T T T T T T T T T T T T T T T U T T T T T T T T T T &.k.k.k.k.6.T T r   l.l.l.l.l.l.l.l.l.",
"l.l.l.l.l.l.l.l.  9 I T T T T T T T T T T T T T T T U E ~ ( ] ' ' ] ( ~ E U T T T T T T E w.k.k.k.k.s.! T Y 9   l.l.l.l.l.l.l.l.",
"l.l.l.l.l.l.l.l.@ K T T T T T T T T T T T T T T T T ) | p , % $ $ % > s | ) T T T T T T E w.k.k.k.k.p.W T T K @ l.l.l.l.l.l.l.l.",
"l.l.l.l.l.l.l.  r T T T T T T T T T T T T T T T R o.j $ o 7 m :.:.n 7 X O j o.R U T T T U #.j.k.k.k.&.T U U T r   l.l.l.l.l.l.l.",
"l.l.l.l.l.l.l.- P T T T T T T T T T T T T T T R O.3   5 2.g.k.k.k.k.h.2.5   3 O.E T T T U E #.0.w.$.E ~ { W T P - l.l.l.l.l.l.l.",
"l.l.l.l.l.l.  N T T T T T T T T T T T T T T T ..6   g i.k.k.k.k.k.k.k.k.i.g   6 ..T T T T T U T E U W 9.j.7.Y T N   l.l.l.l.l.l.",
"l.l.l.l.l.l.= P T T T T T T T T T T T T T T ^ x   < u.k.k.k.k.k.k.k.k.k.k.u.1   x ^ U T T T T T U U ^ d.k.p.R T P = l.l.l.l.l.l.",
"l.l.l.l.l.  q T T T T T T T T T T T U T T U +.1   >.k.k.k.k.k.k.k.k.k.k.k.k.:.  1 +.U U T T T T T T T $.8.@.T T T q   l.l.l.l.l.",
"l.l.l.l.l.. A T T T T T T T T T U T E ~ _ [  .o : i.k.k.k.k.k.k.k.k.k.k.k.k.i.* o  .[ ) ~ R T T T T T U T U T T T A . l.l.l.l.l.",
"l.l.l.l.l.- P T T T T T T T T ! _ X.} z i < $   a h.k.k.k.k.k.k.k.k.k.k.k.k.h.g   $ < i z } X.( ! T T T T T T T T P - l.l.l.l.l.",
"l.l.l.l.l.0 T T T T T T E / ` d 3 & X           k k.h.h.k.k.k.k.k.k.k.k.h.k.k.k           X & 4 d ` / W T T T T T T 0 l.l.l.l.l.",
"l.l.l.l.  N T T T T Q J d , $                   g k.h.y.k.k.k.k.k.k.k.k.y.g.h.g                   $ , p J Q T T U T N   l.l.l.l.",
"l.l.l.l.. Z T T Q H u % X               o % %   > f.k.,.g.k.k.k.k.k.k.g.,.k.f.<   % & X                 % u H Q T T A . l.l.l.l.",
"l.l.l.l.+ K E G t O             o < k -.3.y.<.$   1.k.4.M g.k.k.k.k.g.M 4.k.<.X O <.y.3.-.k < o             $ t G R K + l.l.l.l.",
"l.l.l.l.@ F y $           o 2 n 3.i.h.k.k.k.f.2   a f.k.*.h ;.5.5.>.h M k.g.7   2 f.k.k.k.h.i.3.n 2 o         X o y F @ l.l.l.l.",
"l.l.l.l.  #           & k <.i.h.k.h.h.h.k.h.k.;.    b h.k.2.c f f l 3.k.h.b     ;.k.h.k.h.h.k.h.h.i.<.k %           #   l.l.l.l.",
"l.l.l.l.          & v 5.g.h.h.h.h.h.k.h.h.k.k.f.a     c u.k.k.k.k.k.k.u.l     g f.k.k.h.k.h.h.h.h.h.h.g.5.v :           l.l.l.l.",
"l.l.l.l.      % c r.g.h.h.g.h.h.h.k.h.h.k.h.k.k.t.1     : b 1.r.r.1.b :     2 t.k.k.h.k.h.h.k.h.h.h.g.h.h.g.5.c $       l.l.l.l.",
"l.l.l.l.  X f 4.g.g.g.h.g.h.g.h.h.h.h.h.h.k.h.k.k.y.g X       $ $         g y.k.k.h.k.h.h.h.h.h.h.g.h.g.h.g.h.g.4.f X   l.l.l.l.",
"l.l.l.l.X -.i.g.g.g.g.g.g.h.g.h.h.h.h.k.h.k.h.k.k.k.g.>.a $         $ a >.g.k.k.h.k.k.h.k.h.h.h.h.h.g.h.g.g.g.g.g.i.-.O l.l.l.l.",
"l.l.l.l.% 5.g.g.g.g.g.g.g.h.h.h.h.h.h.k.h.h.k.h.k.k.k.k.g.t.,.;.;.,.t.g.k.k.k.k.k.k.h.k.h.h.h.h.h.g.h.g.g.g.g.g.g.g.5.% l.l.l.l.",
"l.l.l.l.X <.g.g.g.g.g.g.h.g.h.h.h.h.h.h.h.h.k.k.k.k.k.k.k.k.k.k.k.k.k.k.k.k.k.h.h.k.h.h.h.h.h.h.h.g.h.g.g.g.g.f.g.g.<.X l.l.l.l.",
"l.l.l.l.  -.g.g.f.g.g.g.g.h.h.g.h.h.h.h.k.h.h.k.h.k.k.h.k.k.k.k.k.k.k.k.k.k.k.k.k.h.k.h.h.h.h.h.h.h.h.g.h.g.g.g.g.g.-.  l.l.l.l.",
"l.l.l.l.l.l f.g.g.g.g.g.h.g.h.h.h.h.h.h.h.k.k.h.k.k.k.k.h.k.k.k.k.k.k.h.h.k.h.k.h.k.k.h.k.h.h.g.g.h.g.g.g.g.g.g.g.f.l l.l.l.l.l.",
"l.l.l.l.l.1 u.g.g.g.g.g.g.g.g.g.h.h.h.h.h.h.h.k.h.h.k.h.k.k.k.h.k.k.k.k.k.k.k.h.k.h.h.h.h.h.h.h.h.g.h.g.g.g.g.g.g.u.1 l.l.l.l.l.",
"l.l.l.l.l.O 1.g.g.f.g.g.g.h.g.h.h.h.h.h.h.k.h.h.k.k.h.k.h.k.k.k.k.k.h.k.k.h.k.k.h.h.h.h.h.h.h.h.h.g.h.g.g.g.g.g.g.1.O l.l.l.l.l.",
"l.l.l.l.l.  v g.g.g.g.g.g.g.h.g.h.g.g.h.h.h.h.k.h.h.h.k.h.k.h.k.k.h.h.k.k.h.h.h.h.k.h.h.h.h.h.g.g.h.g.g.g.g.g.f.g.v   l.l.l.l.l.",
"l.l.l.l.l.l.> y.g.f.g.g.g.g.g.h.h.g.h.h.h.h.h.h.h.k.h.k.h.k.h.k.k.k.k.h.k.h.h.k.h.k.h.h.g.h.g.h.g.h.g.g.g.g.g.g.y.> l.l.l.l.l.l.",
"l.l.l.l.l.l.  -.g.g.g.f.g.g.h.g.g.h.h.h.h.h.h.h.h.k.h.h.k.h.k.h.h.h.k.h.h.k.h.h.h.h.h.h.h.h.h.h.g.g.g.g.g.f.g.g.-.  l.l.l.l.l.l.",
"l.l.l.l.l.l.l.5 u.g.g.g.g.h.g.g.g.h.g.h.h.h.h.h.h.h.h.h.h.h.h.h.h.h.k.h.h.h.h.h.h.h.h.h.g.g.g.g.g.g.g.g.g.g.g.y.5 l.l.l.l.l.l.l.",
"l.l.l.l.l.l.l.  M g.g.g.g.g.g.g.g.g.h.h.h.h.h.h.h.h.h.k.h.k.h.h.k.h.h.h.h.h.h.h.h.h.h.h.h.h.h.g.h.g.g.g.f.g.g.M   l.l.l.l.l.l.l.",
"l.l.l.l.l.l.l.l.* 5.g.g.g.g.g.g.g.g.h.g.g.h.g.h.h.h.h.h.h.h.h.h.h.h.h.h.h.h.h.h.h.h.h.g.g.h.g.h.g.g.g.g.g.g.5.: l.l.l.l.l.l.l.l.",
"l.l.l.l.l.l.l.l.  h i.g.f.g.g.g.g.h.g.g.h.g.h.h.h.h.h.h.h.h.h.h.h.h.h.h.h.h.h.h.h.g.g.h.g.g.g.g.g.g.g.g.g.f.h   l.l.l.l.l.l.l.l.",
"l.l.l.l.l.l.l.l.l.X M f.g.g.f.g.g.g.g.g.h.g.g.h.h.g.h.h.h.h.h.h.h.h.h.h.h.h.h.g.h.g.g.h.g.g.g.g.g.g.g.f.f.M X l.l.l.l.l.l.l.l.l.",
"l.l.l.l.l.l.l.l.l.l.% ,.g.g.g.g.g.g.g.g.g.g.h.g.g.h.g.h.h.h.g.h.g.h.g.h.h.g.h.h.g.h.g.g.g.g.g.g.g.f.g.g.,.% l.l.l.l.l.l.l.l.l.l.",
"l.l.l.l.l.l.l.l.l.l.l.* <.g.g.f.g.g.g.g.g.h.g.h.g.h.h.g.h.g.g.h.h.g.h.g.g.g.h.g.g.h.g.g.g.g.g.g.f.g.g.<.* l.l.l.l.l.l.l.l.l.l.l.",
"l.l.l.l.l.l.l.l.l.l.l.l.* <.g.g.f.g.g.g.g.g.g.g.g.g.g.h.g.h.g.h.h.g.g.h.g.h.g.h.g.g.g.g.g.g.g.g.g.g.<.* l.l.l.l.l.l.l.l.l.l.l.l.",
"l.l.l.l.l.l.l.l.l.l.l.l.l.& >.g.g.g.f.g.g.g.g.g.g.g.g.g.g.g.g.g.g.g.h.g.g.g.g.g.g.g.g.g.g.g.g.g.f.>.* l.l.l.l.l.l.l.l.l.l.l.l.l.",
"l.l.l.l.l.l.l.l.l.l.l.l.l.l.O n i.g.g.g.g.g.g.g.g.g.g.g.g.g.g.g.g.g.g.g.g.g.g.g.g.g.g.g.f.g.g.u.m O l.l.l.l.l.l.l.l.l.l.l.l.l.l.",
"l.l.l.l.l.l.l.l.l.l.l.l.l.l.l.  f 4.f.g.f.g.g.g.g.g.g.g.g.g.g.g.g.g.g.g.g.g.g.g.g.g.g.f.g.g.4.f . l.l.l.l.l.l.l.l.l.l.l.l.l.l.l.",
"l.l.l.l.l.l.l.l.l.l.l.l.l.l.l.l.  % b r.g.g.g.g.g.g.g.g.g.g.g.g.g.g.g.g.f.g.g.g.f.g.g.g.t.b %   l.l.l.l.l.l.l.l.l.l.l.l.l.l.l.l.",
"l.l.l.l.l.l.l.l.l.l.l.l.l.l.l.l.l.l.  > b 5.f.g.g.g.g.g.g.g.g.g.g.f.g.g.g.g.g.g.g.f.5.b >   l.l.l.l.l.l.l.l.l.l.l.l.l.l.l.l.l.l.",
"l.l.l.l.l.l.l.l.l.l.l.l.l.l.l.l.l.l.l.l.  % h :.r.i.g.g.g.g.g.g.g.g.g.g.g.f.i.r.:.h *   l.l.l.l.l.l.l.l.l.l.l.l.l.l.l.l.l.l.l.l.",
"l.l.l.l.l.l.l.l.l.l.l.l.l.l.l.l.l.l.l.l.l.l.l.  * 7 v -.,.2.5.5.5.5.4.,.-.v 7 *   l.l.l.l.l.l.l.l.l.l.l.l.l.l.l.l.l.l.l.l.l.l.l.",
"l.l.l.l.l.l.l.l.l.l.l.l.l.l.l.l.l.l.l.l.l.l.l.l.l.l.    X O % % % % O X     l.l.l.l.l.l.l.l.l.l.l.l.l.l.l.l.l.l.l.l.l.l.l.l.l.l.",
"l.l.l.l.l.l.l.l.l.l.l.l.l.l.l.l.l.l.l.l.l.l.l.l.l.l.l.l.l.l.l.l.l.l.l.l.l.l.l.l.l.l.l.l.l.l.l.l.l.l.l.l.l.l.l.l.l.l.l.l.l.l.l.l.",
"l.l.l.l.l.l.l.l.l.l.l.l.l.l.l.l.l.l.l.l.l.l.l.l.l.l.l.l.l.l.l.l.l.l.l.l.l.l.l.l.l.l.l.l.l.l.l.l.l.l.l.l.l.l.l.l.l.l.l.l.l.l.l.l.",
"l.l.l.l.l.l.l.l.l.l.l.l.l.l.l.l.l.l.l.l.l.l.l.l.l.l.l.l.l.l.l.l.l.l.l.l.l.l.l.l.l.l.l.l.l.l.l.l.l.l.l.l.l.l.l.l.l.l.l.l.l.l.l.l.",
"l.l.l.l.l.l.l.l.l.l.l.l.l.l.l.l.l.l.l.l.l.l.l.l.l.l.l.l.l.l.l.l.l.l.l.l.l.l.l.l.l.l.l.l.l.l.l.l.l.l.l.l.l.l.l.l.l.l.l.l.l.l.l.l."
};
