/* XPM */
static char *_66f0bfe05214452f97aeb7ee1393f0aVB8BOmxu255JKffx[] = {
/* columns rows colors chars-per-pixel */
"64 64 224 2 ",
"   c None",
".  c #1A0807",
"X  c #1B0B0B",
"o  c #170909",
"O  c #230E0C",
"+  c #280D0A",
"@  c #24110D",
"#  c #2B120F",
"$  c #37110D",
"%  c #2B1712",
"&  c #271514",
"*  c #341411",
"=  c #3A1511",
"-  c #3D1D13",
";  c #3C2625",
":  c #271A25",
">  c #49160B",
",  c #411713",
"<  c #471914",
"1  c #591F19",
"2  c #561D18",
"3  c #52170A",
"4  c #691B0A",
"5  c #7F1904",
"6  c #432616",
"7  c #53321D",
"8  c #552A1A",
"9  c #6D251C",
"0  c #67271D",
"q  c #71261E",
"w  c #78281B",
"e  c #682E14",
"r  c #523937",
"t  c #7C2A21",
"y  c #633F24",
"u  c #6F421E",
"i  c #74421E",
"p  c #7B4921",
"a  c #6A4431",
"s  c #544B4A",
"d  c #68585A",
"f  c #684945",
"g  c #841E06",
"h  c #9B1F02",
"j  c #88240B",
"k  c #9E2205",
"l  c #982308",
"z  c #87311A",
"x  c #9A3816",
"c  c #9A2912",
"v  c #A22405",
"b  c #A42B0A",
"n  c #AA2A0C",
"m  c #A52609",
"M  c #AB340E",
"N  c #B73308",
"B  c #B22D11",
"V  c #B92F13",
"C  c #AD3812",
"Z  c #BA3015",
"A  c #B93717",
"S  c #AF2D11",
"D  c #842C22",
"F  c #842723",
"G  c #923126",
"H  c #993226",
"J  c #9D3829",
"K  c #8B3525",
"L  c #A93A2B",
"P  c #B43C2D",
"I  c #BC3D2E",
"U  c #D5350B",
"Y  c #C2351B",
"T  c #C7381D",
"R  c #CC300A",
"E  c #FA340A",
"W  c #F93B09",
"Q  c #F63409",
"!  c #E33C0C",
"~  c #CD3B22",
"^  c #D43E26",
"/  c #C13F30",
"(  c #B84718",
")  c #AD421A",
"_  c #8E5C32",
"`  c #924F29",
"'  c #B7432F",
"]  c #B95526",
"[  c #B04931",
"{  c #956235",
"}  c #BB6936",
"|  c #B67339",
" . c #B16A32",
".. c #C3551D",
"X. c #C6591F",
"o. c #C0471B",
"O. c #F94808",
"+. c #FA5807",
"@. c #FA6C06",
"#. c #FA6706",
"$. c #FC7404",
"%. c #F97A05",
"&. c #DB412B",
"*. c #C75B24",
"=. c #C64132",
"-. c #CC4433",
";. c #D44534",
":. c #DB4836",
">. c #D45831",
",. c #D1502B",
"<. c #EC4A35",
"1. c #E54A39",
"2. c #EB4C3A",
"3. c #E34933",
"4. c #F54F3B",
"5. c #F84F3C",
"6. c #F04C37",
"7. c #E65733",
"8. c #F7523C",
"9. c #F9513D",
"0. c #F75B3D",
"q. c #F85B3E",
"w. c #E5442D",
"e. c #CF6525",
"r. c #D46C28",
"t. c #D46828",
"y. c #D9732C",
"u. c #D3772F",
"i. c #C87A33",
"p. c #D1713A",
"a. c #F7633D",
"s. c #F66C3D",
"d. c #FA673E",
"f. c #E57B34",
"g. c #F6723D",
"h. c #F67C3D",
"j. c #F8783D",
"k. c #E56A35",
"l. c #B6734B",
"z. c #A96563",
"x. c #A35A46",
"c. c #EE5841",
"v. c #F85D41",
"b. c #F75C42",
"n. c #D16E43",
"m. c #F96742",
"M. c #F77A48",
"N. c #F67B52",
"B. c #DE7062",
"V. c #F98604",
"C. c #FB9601",
"Z. c #FCAC00",
"A. c #FBA202",
"S. c #FBB401",
"D. c #F9BA01",
"F. c #D3823B",
"G. c #CF8135",
"H. c #E58233",
"J. c #E38C3A",
"K. c #ED8D39",
"L. c #EB8838",
"P. c #F5833D",
"I. c #F58C3D",
"U. c #F88D3E",
"Y. c #EE913B",
"T. c #F5953D",
"R. c #F5983E",
"E. c #F9993E",
"W. c #FAC500",
"Q. c #F8CD00",
"!. c #F8D400",
"~. c #F8DB00",
"^. c #BF8043",
"/. c #AB8957",
"(. c #CA8645",
"). c #D7924C",
"_. c #D29450",
"`. c #F98A4B",
"'. c #ED954A",
"]. c #F59C43",
"[. c #F39945",
"{. c #FB9652",
"}. c #FC9B53",
"|. c #F49956",
" X c #EE914F",
".X c #F4A047",
"XX c #F5A34A",
"oX c #F3A455",
"OX c #FAA355",
"+X c #FBAA57",
"@X c #FBAC58",
"#X c #F5AA58",
"$X c #FAB15D",
"%X c #F6B158",
"&X c #ECA153",
"*X c #EF8470",
"=X c #F4AA66",
"-X c #F6BA66",
";X c #F4C36C",
":X c #F4CB73",
">X c #F4C975",
",X c #F3D47C",
"<X c #EDC975",
"1X c #0D34A8",
"2X c #0F69AF",
"3X c #57598F",
"4X c #1B839E",
"5X c #0F8BAD",
"6X c #2586A2",
"7X c #679182",
"8X c #A09687",
"9X c #BCADB1",
"0X c #B6B3B4",
"qX c #8B99B5",
"wX c #CB928D",
"eX c #DABCA4",
"rX c #EFB7B1",
"tX c #DFA58B",
"yX c #F3D880",
"uX c #F1DBB1",
"iX c #CABFC4",
"pX c #E4DEE5",
"aX c #EEF2F1",
"sX c #E4D0D1",
/* pixels */
"                              5.5.5.^ k k k k k                                                                                 ",
"                            8.d.g.g.k.........( k k                                                                             ",
"                        b.q.8.h.R.R.R.R.R.R.R.y.b b b                                                                           ",
"                    5.b.-X#XI.T.R.R.R.R.R.R.R.Y.H.H.u.- X                                                                       ",
"                  8.N.|.,X:X%X.XR.R.R.R.R.R.R.R.R.R.J.- X                                                                       ",
"                  8.=XyXyXyXyX%XR.R.R.R.R.R.R.R.R.R.J.6 @                                                                       ",
"                  8.=XyXyXyXyX%XR.R.R.R.R.R.R.R.R.R.T.i.{ @                                                                     ",
"                0.s.oX;X,X:X-XXXR.R.R.R.R.R.R.R.R.R.R.E. .@                                                                     ",
"              5.s.R.R..X:X-XR.R.R.R.R.R.R.R.R.R.R.R.R.E.| #                                                                     ",
"              5.s.R.R.R.XX.XR.R.R.R.R.R.R.R.R.R.R.R.R.R.f.=.0 X                                                                 ",
"              5.s.R.R.R.R.R.R.R.R.R.R.R.R.R.R.I.P.I.R.P.g.9.q X                                                                 ",
"              5.s.R.R.R.R.R.R.R.R.R.R.R.R.R.R.h.8.h.T.0.4.9.q X                                                                 ",
"              5.s.R.R.R.R.R.R.R.R.R.R.R.R.T.s.s.P.T.I.A T 8.q X                                                                 ",
"              *X*XP.T.R.R.R.R.R.R.R.R.R.R.T.s.j.R._./.x V 4.q X                                                                 ",
"              aXrX8.P.R.R.R.R.R.R.R.R.R.R.R.].[.[.7X4Xz Z 8.q X                                                                 ",
"              s x.P.T.R.R.R.R.R.R.R.R.R.R.].uX0X3X2X4Xz V 4.q X                                                                 ",
"              : a R.R.R.R.R.R.R.R.R.R.R.R.[.eXqX2X2X4XJ ~ 5.q X                                                                 ",
"          v F 1X3XR.R.R.R.R.R.R.R.R.R.R.R.K.M f 5X5X6Xn.5.9.q X                                               E E               ",
"          k x 8XwX;X;X-X].R.R.R.R.R.R.R.R.T.y.p.z.z.z.c.9.9.q X                                               E E               ",
"          k ) <XyXyX:X;X].T.P.T.R.R.R.R.R.R.I.g.9.<.w.4.9.9.q X                                               E E               ",
"          k ) <XyX,X%XR.R.h.8.h.R.R.R.R.R.T.0.8.8.Y n <.9.9.q X                                             E E E     E         ",
"              ] F.%X.XR.R.I.h.I.R.R.R.R.h.a.T Z Z ~ &.4.-.9 <                     k v v                     E #.A.Z.V.W E       ",
"              5 x i.J.R.R.R.R.R.T.H.f.f.>.=.[ [ B &.9.9.P O                     n S j g                     E V.~.S.C.W         ",
"              O @ %  .R.R.R.R.R.L.M b b 3 ; sXrX8.4.9.9.I O         k k k k k k ~ 2.< O                     E V.~.S.C.W         ",
"    v k k           y i u u u u i R U U j w *XN.9.9.8.9.-.4 g k k C t.r.r.r.r.r.7.2.< X                     E +.%.S.D.V.        ",
"    g l B           + X , < < $ > U ! ! R Z <.2.-.1.9.9.3.C C C C X.R.R.R.R.R.I.d.2.9 ,                     E E W D.!.Z.C.      ",
"    O w 4.Z k k k k > * ;.2.2.Z l v v m &.4.9.P # L 9.9.a.I.Y.Y.Y.T.R.R.R.R.P.q.9.9.4.P O                   E E W D.!.Z.@.E     ",
"    o t 9.>.e.e.e.e.[ G t t t ] t.e.>.^ H t t D H ;.9.9.0.s.I.R.R.I.g.s.s.g.d.9.P t t 9                 E O.$.+.W @.V.W.A.$.O.E ",
"    , G 9.h.T.R.R.R.d.1.1 , , ` G.G.p.;.q , , D 9.9.8.9.9.5.j.I.I.h.8.5.5.9.2.;.q o X X                 E O.Z.$.E E O.S.D.S.+.E ",
"X = ;.4.9.9.a.T.R.R.s.5.2.2.2.q @ # # # L 2.2.2.8.9.9.9.9.9.8.8.8.8.8.9.9.9./ *                         E O.A.$.E E E W V.!.+.E ",
"  = t D D ;.q.g.g.g.q.9.9.9.9.I G G G G ;.9.9.9.9.9.9.9.9.8.9.9.9.9.9.P D D q                           E +.W.Z.V.O.O.V.S.~.+.E ",
"    X X X J ;.;.1.9.9.9.9.9.8.6.<.9.9.m.m.v.v.0.9.9.9.9.9.9.<.<.<.3.;.q o X X                           E +.D.Q.!.@.@.!.~.Q.+.E ",
"          * * # t 9.9.9.9.9.8.Y B <.m.OXOXOXOX`.9.8.9.9.9.9.Y m n j *                                   E W O.$.S.W.!.~.W.Z.+.E ",
"                2 D D G 2.9.9.Z n M.`.+X+X+X+X}.M.m.5.5.q.j.t.*.4 3                                       E E O.$.S.W.W.C.@.O.E ",
"                  X X = =.3.<.Y A oX$X$X$X$X$X$X$XM.0.q.s.R.R.J.6 X                                         E E E V.C.C.#.E E E ",
"                        * 4 n ^ c.>X,X,X,X,X,X,X,X-X}.[.T.R.R.J.6 X                                         E E Q N N O.W E     ",
"                          4 k >.`.,XyXyXyXyXyXyXyX>X-X].R.R.R.Y.` q O                                         U R m m Q E E     ",
"                            k p.-X,XyXyXyXyXyXyXyXyX,X.XR.R.R.T.d.P O                                         b b M B U         ",
"                            k _.,X,XyXyXyXyXyXyXyXyX,X.XR.R.R.R.U. .X                                       k ..L.'.(.<         ",
"                            k _.yXyX,XyXyXyXyXyXyXyX,X].R.R.R.R.R.i.p 8                                     k X.].+X).%         ",
"                          b M _.yXyXyXyXyXyXyXyXyXyX,X.XR.R.R.R.R.R.E.p X                                   b *.T.+X).% X       ",
"                        k ] '.-XyXyXyXyXyXyXyXyXyXyX,X@XXXR.R.R.R.R.R.p X                           k k k C H.g.0.}.).% X       ",
"                        k *.-X:XyXyXyXyXyXyXyXyXyXyX,X;X%XR.R.R.R.R.R.p X                           ( ....*.h.M.M.| { %         ",
"                        k } yXyX,XyXyXyXyXyXyXyXyXyXyXyX;XT.R.R.R.R.R.` #                 k k b b b e.R.R.P.0.M.).7 X           ",
"                    k k h } yXyX,XyXyXyXyXyXyXyXyX,XyXyX-Xa.P.R.R.R.R.J.i.- $ k k k k k k k b y.H.H.K.R.s.m.}. .6               ",
"                    ( o.A p.:X,XyXyXyXyXyXyX,XyXyXyX,X>X=X9.h.R.R.R.R.R.Y.K 9 4 c Y Y Y Y o...K.T.h.`.].M.M.@X{ X               ",
"                  v y.T.q.M.OX;X,X,XyXyXyXyXyX,X,X,X,X@X`.8.h.R.R.R.R.R.T.a.' O H 9.9.9.9.g.R.R.P.9.`.@X+X#XoX_ X               ",
"                  k y.R.I.h.m.{.-X,XyXyXyXyXyX:X-X-X@Xm.m.P.T.R.R.R.R.R.R.U.} O H 9.9.8.9.q.0.0.m.{.OX+X@X).7 6                 ",
"                z ( H.R.R.f.&.`.$X;X>X>X>X>X>X-X+X+XOXv.d.R.R.R.R.R.R.R.R.R.i.q G P 1.9.8.9.9.m.M.+X@X#X(.{ @                   ",
"              X u R.R.R.R.r.b p.oX+X+X+X+X+X+X+X@X@XOXv.d.R.R.R.R.R.R.R.R.R.P.8.t # -.9.9.9.q.}.+XoXoX&X7 X                     ",
"              X i R.R.R.R.K.f.` y &X@X+X+X+X+X+X+X@XOXv.d.R.R.R.R.R.R.R.R.s.0.9.t # n.{.{.{.}.@X).7 7 7                         ",
"              X i R.R.R.T.R.R.` 0 | (.+X+X+X+X+X+X+XOX3.7.P.T.R.R.R.R.I.h.q.5.9.t # (.@X@X).l.l.{ @ X X                         ",
"              X u Y.T.R.R.R.R.s.;.= u oXoXoX+X@X+X+X|.C Z 8.h.R.R.R.R.s.8.8.9.9.t # (.+X+X_ O @ @                               ",
"                6 7 i.E.R.P.a.9.4.=.J 7 7 y &X@X@X@X}.C Z 8.q.a.a.a.a.q.9.8.9.9.t O x ( ( x                                     ",
"                  X ` i.L.g.5.5.9.9.=.1 2 0 | ^.^.^.| j c &.<.9.5.5.5.9.9.9.2./ 9 O g k k                                       ",
"                    O , :.9.9.9.9.9.5.2.2.;.- @ @ @ @ O > k ^ 8.8.9.9.9.9.9.I #                                                 ",
"                    X = :.9.9.9.9.9.=.1 1 1                 B Z <.9.5.5.9.9.I O                                                 ",
"                    < 9 1.9.9.9.9.9.P X X X                 k m 7.a.a.a.a.9.I O                                                 ",
"                  @ P 4.8.9.9.9.8.9.P O                     k b H.R.R.R.T.q.I #                                                 ",
"              . d 9X} =.rXtX9.9.1.q 1                       k b 7.j.T.R.R.P.k.P 0 .                                             ",
"              . d iXx.z 9XwX=.=.P #                         k m I n.=X'.f.=X|.<.` s                                             ",
"                  & @ O & & # # #                               O d aXB.C sXrXb wXpXr X                                         ",
"                                                                  r d r > d f > r d                                             ",
"                                                                    . X X . X X X .                                             "
};
